<?xml version="1.0" standalone="no"?>
<!DOCTYPE svg PUBLIC "-//W3C//DTD SVG 20010904//EN"
 "http://www.w3.org/TR/2001/REC-SVG-20010904/DTD/svg10.dtd">
<svg version="1.0" xmlns="http://www.w3.org/2000/svg"
 width="323.000000pt" height="323.000000pt" viewBox="0 0 323.000000 323.000000"
 preserveAspectRatio="xMidYMid meet">

<g transform="translate(0.000000,323.000000) scale(0.100000,-0.100000)"
fill="#000000" stroke="none">
<path d="M1319 3213 c-1 -10 -1 -24 0 -31 1 -8 -3 -20 -10 -28 -9 -11 -9 -18
-1 -26 7 -7 12 -26 12 -42 l0 -31 -15 25 c-8 14 -19 34 -25 45 -9 17 -9 15 -5
-12 3 -18 8 -45 11 -60 4 -22 -1 -34 -25 -57 -26 -25 -31 -37 -31 -78 0 -48
16 -67 22 -26 2 13 13 24 28 28 l26 7 -4 -62 c-2 -35 0 -71 5 -80 9 -15 14
-14 45 14 20 17 41 31 47 31 8 0 10 8 6 20 -5 17 -2 20 21 20 15 0 33 8 41 18
8 9 12 12 9 5 -4 -7 1 -9 14 -6 11 3 20 10 20 15 0 5 -4 6 -10 3 -5 -3 -10 -2
-10 2 0 5 17 9 38 10 20 0 58 8 83 17 32 11 64 14 105 10 33 -3 80 -7 106 -8
26 -2 55 -9 64 -17 24 -19 54 -22 54 -4 0 11 7 14 25 9 15 -4 25 -2 25 5 0 6
5 11 10 11 6 0 5 -8 -2 -20 -16 -25 -3 -38 22 -22 12 7 20 8 20 2 0 -15 27
-12 45 6 8 9 22 13 30 10 8 -3 19 2 25 12 5 9 16 26 25 36 14 19 15 19 35 1
11 -10 20 -15 20 -12 0 3 -9 15 -21 26 -16 15 -18 21 -7 27 7 5 16 9 21 9 20
0 9 20 -13 23 -14 2 -30 8 -35 12 -6 5 -18 3 -28 -4 -24 -19 -21 -27 8 -20 15
4 25 2 25 -5 0 -6 -5 -11 -12 -11 -6 0 -20 -8 -31 -17 -11 -10 -17 -12 -12 -4
11 19 -15 33 -34 18 -12 -10 -14 -9 -8 6 4 10 7 21 7 23 0 2 6 4 14 4 7 0 20
7 27 16 7 9 23 20 36 25 13 5 23 16 23 26 1 39 75 97 91 71 4 -7 11 -9 14 -6
4 4 -2 16 -13 28 -17 18 -20 19 -25 6 -9 -22 -34 -20 -49 4 -12 19 -26 19
-445 20 -407 0 -433 -1 -434 -17z m771 -10 c0 -5 -5 -15 -10 -23 -7 -12 -12
-12 -22 -2 -10 10 -10 15 2 22 18 12 30 13 30 3z m100 -23 c0 -5 -4 -10 -10
-10 -5 0 -10 5 -10 10 0 6 5 10 10 10 6 0 10 -4 10 -10z m-76 -15 c-6 -16 -24
-21 -24 -7 0 11 11 22 21 22 5 0 6 -7 3 -15z m-54 -25 c0 -11 -4 -20 -10 -20
-5 0 -10 9 -10 20 0 11 5 20 10 20 6 0 10 -9 10 -20z m110 6 c0 -16 -18 -31
-27 -22 -8 8 5 36 17 36 5 0 10 -6 10 -14z m-85 -45 c-3 -6 -11 -11 -17 -11
-6 0 -6 6 2 15 14 17 26 13 15 -4z m79 -3 c-3 -4 -15 -8 -27 -8 -15 0 -18 3
-9 8 17 11 43 11 36 0z m-129 -7 c-3 -6 1 -13 8 -18 9 -5 11 -16 6 -33 l-7
-25 -1 28 c-1 17 -5 26 -12 22 -6 -4 -9 -23 -6 -44 2 -20 2 -28 0 -19 -2 9
-11 22 -18 28 -13 11 -12 16 2 41 10 16 21 29 26 29 4 0 6 -4 2 -9z m-115 -71
c0 -5 -7 -10 -15 -10 -8 0 -15 5 -15 10 0 6 7 10 15 10 8 0 15 -4 15 -10z m80
-38 c0 -15 -2 -15 -10 -2 -13 20 -13 33 0 25 6 -3 10 -14 10 -23z m80 -9 c0
-5 -5 -15 -10 -23 -8 -12 -10 -11 -10 8 0 12 5 22 10 22 6 0 10 -3 10 -7z
m-100 -24 c0 -5 -7 -9 -15 -9 -15 0 -20 12 -9 23 8 8 24 -1 24 -14z m-543 -61
c-3 -8 -6 -5 -6 6 -1 11 2 17 5 13 3 -3 4 -12 1 -19z"/>
<path d="M2210 3220 c0 -5 7 -10 16 -10 8 0 12 5 9 10 -3 6 -10 10 -16 10 -5
0 -9 -4 -9 -10z"/>
<path d="M2295 3220 c-3 -5 1 -10 9 -10 8 0 18 5 21 10 3 6 -1 10 -9 10 -8 0
-18 -4 -21 -10z"/>
<path d="M2408 3223 c7 -3 16 -2 19 1 4 3 -2 6 -13 5 -11 0 -14 -3 -6 -6z"/>
<path d="M2390 3190 c0 -6 -12 -28 -26 -50 -15 -22 -24 -43 -20 -47 7 -7 4
-10 44 48 29 43 32 59 10 59 -4 0 -8 -5 -8 -10z"/>
<path d="M2305 3180 c3 -5 8 -10 11 -10 2 0 4 5 4 10 0 6 -5 10 -11 10 -5 0
-7 -4 -4 -10z"/>
<path d="M2260 3149 c0 -5 5 -7 10 -4 6 3 10 8 10 11 0 2 -4 4 -10 4 -5 0 -10
-5 -10 -11z"/>
<path d="M3100 3136 c0 -9 5 -16 10 -16 6 0 10 4 10 9 0 6 -4 13 -10 16 -5 3
-10 -1 -10 -9z"/>
<path d="M2200 3119 c0 -5 5 -7 10 -4 6 3 10 8 10 11 0 2 -4 4 -10 4 -5 0 -10
-5 -10 -11z"/>
<path d="M2260 3120 c0 -5 5 -10 10 -10 6 0 10 5 10 10 0 6 -4 10 -10 10 -5 0
-10 -4 -10 -10z"/>
<path d="M2228 3103 c-10 -2 -18 -9 -18 -14 0 -6 8 -5 20 1 11 6 20 13 20 15
0 3 -1 4 -2 4 -2 -1 -11 -3 -20 -6z"/>
<path d="M3111 3074 c0 -11 3 -14 6 -6 3 7 2 16 -1 19 -3 4 -6 -2 -5 -13z"/>
<path d="M2175 3070 c-3 -5 1 -10 9 -10 9 0 16 5 16 10 0 6 -4 10 -9 10 -6 0
-13 -4 -16 -10z"/>
<path d="M2310 3064 c0 -8 -12 -33 -26 -55 -28 -46 -23 -68 7 -29 16 21 49 78
49 85 0 2 -7 5 -15 9 -9 3 -15 0 -15 -10z"/>
<path d="M2175 2950 c3 -5 8 -10 11 -10 2 0 4 5 4 10 0 6 -5 10 -11 10 -5 0
-7 -4 -4 -10z"/>
<path d="M2243 2938 c-12 -19 -33 -60 -33 -64 0 -2 3 -4 8 -4 7 0 52 65 52 75
0 10 -19 5 -27 -7z"/>
<path d="M2150 2915 c-6 -8 -10 -20 -7 -27 3 -8 6 -6 6 5 1 10 6 15 11 12 6
-3 10 1 10 9 0 20 -4 20 -20 1z"/>
<path d="M2113 2876 c0 -17 4 -23 14 -19 9 4 10 9 3 18 -5 6 -7 15 -3 18 3 4
2 7 -4 7 -6 0 -10 -11 -10 -24z"/>
<path d="M1660 2879 c-58 -9 -131 -43 -161 -76 l-24 -26 29 7 c23 6 27 4 23
-8 -7 -19 2 -20 39 -6 20 8 29 8 35 -1 5 -9 11 -8 24 4 9 10 23 17 32 17 9 0
-1 -12 -22 -26 -27 -18 -41 -22 -48 -15 -6 6 -15 11 -21 11 -5 0 -2 -6 7 -13
16 -11 14 -15 -19 -50 -20 -20 -45 -37 -55 -37 -12 0 -16 -5 -13 -15 4 -8 2
-15 -4 -15 -5 0 -13 -11 -16 -25 -6 -22 -9 -23 -31 -13 -33 15 -45 2 -16 -18
14 -10 20 -22 16 -34 -3 -10 -8 -70 -10 -132 -4 -130 -14 -175 -47 -224 -19
-29 -27 -33 -48 -28 -51 14 -65 11 -62 -13 2 -17 -2 -23 -16 -23 -24 0 -40 32
-46 93 -4 39 1 60 25 110 16 34 29 71 29 82 0 23 -76 70 -86 53 -7 -10 24 -37
44 -38 14 0 16 -19 2 -40 -8 -13 -13 -13 -39 3 -36 21 -41 21 -41 1 0 -12 -6
-15 -23 -10 l-23 5 4 -118 3 -118 -33 -43 c-69 -90 -87 -81 -93 45 -2 48 -9
93 -15 99 -6 6 -40 11 -75 11 l-65 0 0 -34 c0 -28 -3 -32 -17 -26 -10 5 -40
13 -68 19 -65 15 -132 51 -140 75 -4 12 -22 23 -51 30 -42 11 -49 10 -104 -20
l-59 -31 -113 68 c-62 38 -122 74 -133 80 -11 6 -46 27 -77 48 -48 30 -58 34
-58 19 1 -12 33 -37 98 -74 278 -161 285 -166 306 -222 10 -29 21 -76 23 -104
4 -46 1 -60 -26 -103 -17 -28 -31 -54 -31 -58 -2 -20 -80 -84 -113 -91 -31 -8
-43 -5 -82 20 -25 16 -49 29 -53 29 -4 0 -33 16 -65 35 l-57 35 1 -73 c1 -60
4 -75 22 -88 l20 -17 -21 -27 c-20 -26 -22 -39 -22 -176 l0 -149 38 0 c21 0
73 4 117 10 44 5 121 12 170 14 56 3 123 14 178 30 49 15 93 24 98 20 5 -3 1
-17 -9 -32 -11 -15 -31 -46 -46 -70 l-27 -42 23 -9 c25 -9 78 5 90 23 4 7 55
12 125 14 165 5 161 10 128 -148 -15 -69 -34 -166 -43 -216 l-16 -90 29 -40
c16 -21 42 -55 58 -74 73 -92 77 -100 77 -167 0 -59 -1 -63 -23 -63 -12 0 -33
7 -45 16 -40 28 -36 7 9 -49 24 -30 132 -165 239 -301 l195 -246 48 0 c26 0
47 3 47 8 0 4 -21 30 -45 57 -25 28 -53 64 -62 80 -9 17 -22 35 -28 40 -14 11
-27 67 -14 59 4 -2 12 2 16 10 7 12 36 16 138 18 l130 3 -100 34 c-118 39
-134 47 -158 75 -10 12 -46 51 -80 87 -67 71 -97 108 -97 121 0 8 -102 160
-124 185 -52 59 -60 89 -52 201 15 195 26 216 121 227 31 4 57 11 60 15 6 9
-29 26 -82 40 -50 12 -53 21 -18 44 14 9 23 21 20 26 -3 4 43 50 102 101 60
51 110 97 111 101 7 15 22 8 22 -9 1 -10 8 -29 16 -43 l15 -25 -5 30 c-3 17
-9 51 -12 78 -6 45 -6 47 17 47 20 0 27 8 38 44 9 31 17 43 27 39 16 -6 20 22
4 32 -6 4 -8 19 -6 33 2 15 5 30 5 35 2 17 23 4 71 -43 53 -52 57 -59 39 -77
-6 -6 -13 -37 -16 -69 l-5 -59 56 -35 c31 -19 56 -37 56 -41 0 -3 22 -16 50
-30 36 -17 50 -30 50 -45 0 -17 -5 -20 -29 -16 -24 3 -51 -12 -40 -23 4 -3 55
-10 159 -21 51 -6 58 -10 90 -52 29 -38 37 -58 45 -124 6 -44 7 -82 3 -84 -5
-3 -21 -3 -37 1 -21 4 -30 13 -34 34 -6 29 -45 51 -90 51 -19 0 -19 -5 -13
-115 l7 -115 -33 0 c-27 -1 -30 -2 -15 -11 9 -6 32 -9 49 -7 l31 3 -2 89 c-1
50 -3 95 -4 100 -1 6 8 12 21 14 18 3 22 -1 22 -21 0 -32 15 -43 68 -52 39 -6
46 -12 40 -32 -2 -5 -28 -8 -58 -8 -44 0 -54 -3 -50 -15 2 -8 4 -40 5 -70 l0
-55 -92 -3 -93 -3 0 30 c0 31 -14 49 -25 31 -3 -5 -3 -25 0 -44 8 -40 31 -48
135 -46 103 2 102 1 98 78 l-3 67 43 3 c40 3 42 2 42 -24 0 -32 -14 -113 -41
-234 -10 -47 -23 -112 -29 -145 -14 -77 -9 -267 7 -272 6 -2 14 4 17 14 7 23
76 98 96 105 8 3 12 9 7 13 -4 5 -21 -1 -37 -13 -36 -27 -44 -28 -30 -2 6 11
8 20 5 20 -3 0 5 11 17 23 13 13 28 24 33 24 46 0 55 4 55 26 1 18 4 16 18
-13 10 -20 33 -42 55 -54 36 -19 39 -19 73 -2 63 30 131 -8 90 -50 -13 -12
-16 -12 -25 3 -9 16 -12 16 -21 3 -5 -8 -10 -26 -10 -40 0 -14 -11 -55 -24
-92 l-24 -67 29 1 c20 1 31 7 35 22 19 64 66 141 78 129 4 -4 9 3 13 15 4 17
10 21 26 16 35 -11 103 -6 148 12 59 23 83 39 152 97 32 27 59 48 60 46 15
-21 26 -65 22 -80 -7 -23 -25 -25 -25 -4 0 24 -20 18 -67 -21 -71 -58 -83 -74
-120 -152 -24 -51 -39 -72 -48 -68 -22 8 -29 -14 -10 -28 16 -12 16 -15 -4
-59 -12 -25 -27 -50 -35 -54 -7 -4 -17 -23 -21 -41 l-7 -32 76 0 76 0 0 41 c0
33 -4 42 -20 46 -23 6 -38 49 -22 65 8 8 23 4 52 -16 39 -25 40 -28 40 -81 l0
-55 305 0 305 0 -1 118 c0 64 -3 111 -6 105 -2 -7 -11 -13 -18 -13 -15 0 -88
80 -109 119 -7 14 -32 58 -56 98 -33 56 -43 85 -47 133 -5 54 -3 63 17 85 13
14 26 25 30 25 4 0 20 -26 35 -57 37 -75 91 -161 120 -193 17 -18 23 -37 23
-69 1 -24 3 -45 6 -48 2 -2 4 25 5 62 0 60 -3 70 -29 98 -39 42 -110 174 -110
206 0 17 14 41 41 69 47 48 58 52 52 19 -2 -12 7 -44 21 -72 29 -56 35 -38 14
39 -9 35 -9 53 1 84 7 21 12 46 10 56 -4 16 -5 16 -24 -1 -11 -10 -38 -32 -60
-48 -22 -17 -42 -32 -45 -35 -3 -3 -27 -23 -55 -45 -27 -22 -94 -82 -148 -135
-54 -52 -104 -95 -110 -95 -7 0 -13 21 -15 53 -2 28 -6 52 -10 52 -5 0 -26
-18 -47 -41 -61 -63 -166 -144 -204 -157 -19 -7 -60 -12 -92 -12 -62 0 -81 12
-116 71 l-16 27 -58 -21 c-55 -21 -59 -21 -93 -4 -31 14 -36 21 -36 52 0 31
-3 35 -25 35 -21 0 -25 5 -25 28 0 38 6 44 86 87 78 41 85 50 109 147 9 35 19
72 22 82 5 19 4 19 -30 -2 l-36 -21 -50 50 -50 50 16 72 c11 52 14 106 10 195
l-5 122 28 20 29 20 -21 51 c-15 36 -25 48 -36 44 -8 -3 -21 3 -29 15 -12 16
-18 18 -35 9 -17 -9 -24 -7 -41 10 l-21 21 24 17 c14 9 44 36 67 60 33 33 64
51 137 79 83 32 99 42 133 85 21 26 43 48 48 48 23 1 38 -19 41 -55 5 -58 19
-63 59 -20 31 33 38 37 63 29 21 -7 28 -17 30 -42 4 -43 27 -50 61 -17 l28 27
119 -31 c65 -17 156 -42 202 -56 148 -45 110 -20 -99 64 -203 81 -204 81 -212
117 -10 39 -29 45 -65 19 -34 -24 -62 -10 -62 31 0 19 -3 36 -8 38 -4 3 -25
-3 -46 -14 -63 -30 -92 7 -60 78 8 17 17 53 20 80 4 26 22 80 40 119 46 97 53
150 24 187 -15 19 -29 27 -41 24 -14 -4 -21 2 -25 21 -13 61 -28 80 -123 150
-167 124 -296 194 -446 241 -122 38 -186 49 -245 40z m55 -79 c-3 -5 -14 -10
-23 -9 -14 0 -13 2 3 9 27 11 27 11 20 0z m187 -40 c26 -7 45 -16 42 -21 -3
-5 -36 -9 -75 -9 -67 0 -73 -2 -157 -54 -73 -45 -89 -52 -102 -42 -8 7 -23 16
-32 19 -10 4 -18 10 -18 15 0 11 90 79 131 97 38 17 130 15 211 -5z m-250
-203 c98 -92 348 -329 362 -343 32 -31 68 -46 96 -41 16 4 66 30 112 60 231
149 276 177 285 177 21 0 44 -49 37 -77 -10 -40 -100 -221 -130 -260 -32 -42
-151 -123 -182 -123 -34 0 -75 24 -129 75 -26 25 -57 45 -69 45 -12 0 -57 -16
-100 -36 l-79 -37 -114 28 c-94 23 -120 34 -151 61 -106 96 -167 362 -108 478
29 58 37 66 67 66 18 -1 48 -22 103 -73z m687 -31 l54 -55 -6 -52 c-7 -55 -32
-96 -41 -68 -3 8 -14 41 -26 74 -11 33 -36 85 -55 117 -19 31 -35 61 -35 68 0
16 45 -18 109 -84z m-470 9 c15 -43 30 -45 38 -5 3 17 9 30 13 30 4 0 22 -22
40 -50 18 -27 36 -50 41 -50 5 0 9 20 9 46 l0 45 35 -27 c33 -25 35 -25 35 -6
0 35 19 35 40 -1 11 -19 31 -39 45 -45 24 -11 25 -10 25 18 0 17 4 30 9 30 15
0 32 -27 26 -42 -4 -9 1 -22 9 -30 8 -8 26 -42 40 -74 19 -46 22 -62 13 -71
-17 -17 -152 -100 -175 -107 -21 -7 -38 8 -43 38 -5 25 -26 32 -31 10 -2 -13
-39 16 -139 112 -145 137 -172 170 -114 135 20 -12 38 -21 40 -21 2 0 6 23 10
50 4 28 10 50 14 50 4 0 13 -16 20 -35z m-706 -221 c18 -7 23 -29 8 -38 -5 -4
-12 -24 -16 -47 -11 -62 -30 -42 -33 35 -2 53 0 67 10 62 7 -3 21 -9 31 -12z
m-221 -191 c-3 -16 -7 -22 -10 -15 -4 13 4 42 11 42 2 0 2 -12 -1 -27z m-62
-3 c0 -5 -2 -10 -4 -10 -3 0 -8 5 -11 10 -3 6 -1 10 4 10 6 0 11 -4 11 -10z
m280 -109 c0 -14 -39 -20 -49 -7 -5 6 -7 24 -4 40 l6 30 24 -28 c12 -15 23
-31 23 -35z m24 23 c3 -8 2 -12 -4 -9 -6 3 -10 10 -10 16 0 14 7 11 14 -7z
m816 -14 c0 -5 7 -7 15 -4 12 5 15 -3 15 -42 0 -33 7 -57 20 -74 34 -43 29
-50 -47 -65 -22 -4 -30 -11 -26 -21 9 -25 47 -27 87 -4 34 21 36 25 30 57 -10
52 12 70 82 67 31 -2 58 -4 59 -6 2 -2 0 -24 -4 -49 -12 -76 -153 -236 -269
-306 -47 -28 -65 -33 -116 -33 -86 0 -105 13 -146 96 -55 110 -100 210 -100
220 0 5 -9 20 -19 33 -18 24 -18 37 4 106 9 28 93 31 191 6 l75 -19 57 23 c61
26 92 31 92 15z m414 -32 c3 -18 2 -49 -2 -68 -7 -31 -12 -36 -47 -41 -22 -4
-41 -6 -43 -4 -6 6 38 108 54 126 24 26 31 24 38 -13z m139 -76 c-3 -9 -10
-22 -15 -29 -6 -7 -6 -18 -2 -25 6 -9 3 -9 -10 1 -13 11 -14 16 -4 22 7 5 9 9
3 9 -5 0 -3 5 5 10 10 6 11 10 3 10 -7 0 -13 5 -13 11 0 5 5 7 10 4 6 -3 10
-1 10 5 0 6 4 9 10 5 5 -3 6 -13 3 -23z m-1333 -53 c0 -19 -1 -19 -26 -3 -15
10 -23 23 -20 31 4 8 6 20 6 26 1 20 40 -34 40 -54z m1253 40 c14 -1 -22 -17
-40 -18 -7 -1 -10 6 -6 15 3 8 12 13 20 10 8 -3 20 -6 26 -7z m132 -52 c16
-13 15 -14 -13 -9 -18 2 -29 8 -26 13 7 12 17 11 39 -4z m73 1 c-2 -6 -10 -14
-16 -16 -7 -2 -10 2 -6 12 7 18 28 22 22 4z m-148 -12 c0 -3 -4 -8 -10 -11 -5
-3 -10 -1 -10 4 0 6 5 11 10 11 6 0 10 -2 10 -4z m-1410 -22 c0 -9 5 -12 13
-8 8 5 8 3 -2 -9 -7 -9 -17 -15 -21 -12 -5 3 -11 1 -15 -5 -10 -17 -25 -11
-18 8 15 37 43 55 43 26z m1623 -18 c18 -8 64 -26 102 -40 78 -28 68 -35 -16
-10 -66 19 -128 46 -129 57 0 10 8 9 43 -7z m-2223 -170 c0 -2 -8 -10 -17 -17
-16 -13 -17 -12 -4 4 13 16 21 21 21 13z m160 -46 c0 -5 -5 -10 -11 -10 -5 0
-7 5 -4 10 3 6 8 10 11 10 2 0 4 -4 4 -10z m1459 -132 c8 -12 8 -18 0 -18 -5
0 -8 -4 -4 -9 3 -5 1 -12 -5 -16 -10 -6 -14 7 -11 33 1 6 -3 12 -9 12 -5 0
-10 -5 -10 -12 0 -9 -3 -9 -12 0 -10 10 -10 14 0 21 21 13 38 9 51 -11z m-59
-29 c13 -9 13 -10 -1 -6 -9 3 -22 0 -28 -6 -7 -7 -11 -7 -11 -1 0 24 17 29 40
13z m-57 -51 c6 -22 5 -22 -8 -4 -17 22 -20 40 -6 32 5 -3 11 -16 14 -28z"/>
<path d="M1516 2564 c-24 -24 -29 -58 -22 -146 7 -81 60 -243 89 -272 30 -30
188 -104 236 -111 65 -9 139 15 186 60 58 54 45 82 -78 166 -31 22 -121 103
-199 179 -148 147 -175 162 -212 124z m177 -112 c20 -19 37 -38 37 -43 0 -18
199 -191 258 -225 17 -10 32 -24 32 -32 0 -37 -110 -102 -172 -102 -36 0 -194
65 -224 91 -22 20 -76 123 -93 178 -6 19 -11 68 -11 110 0 59 5 84 20 109 l21
34 47 -42 c26 -24 64 -58 85 -78z"/>
<path d="M2455 2346 c-11 -7 -47 -28 -80 -46 -33 -18 -97 -57 -142 -86 -44
-30 -85 -54 -91 -54 -5 0 -12 -23 -15 -52 -8 -63 4 -80 75 -104 40 -13 54 -14
78 -4 51 21 56 39 7 23 -39 -13 -49 -13 -80 0 -19 9 -43 27 -52 41 -14 21 -15
29 -3 53 15 31 96 91 220 163 93 53 115 59 124 35 7 -18 -40 -115 -82 -171
-17 -22 -39 -54 -49 -70 -28 -47 50 42 89 101 25 38 66 132 66 151 0 6 -32 34
-38 34 -4 0 -16 -6 -27 -14z"/>
<path d="M1657 1944 c-14 -14 -7 -87 9 -106 9 -9 55 -29 103 -44 47 -14 106
-36 131 -49 52 -26 83 -31 122 -20 38 10 24 27 -15 20 -26 -5 -55 5 -152 55
-121 62 -171 98 -184 132 -4 10 -10 16 -14 12z m59 -102 c-9 -9 -37 8 -31 18
5 8 11 7 21 -1 8 -6 12 -14 10 -17z"/>
<path d="M1730 1698 c0 -13 7 -31 14 -41 12 -15 14 -15 19 -3 5 12 21 15 82
11 62 -3 75 -1 75 11 0 8 -5 12 -10 9 -6 -4 -35 3 -66 14 -30 12 -68 21 -84
21 -25 0 -30 -4 -30 -22z"/>
<path d="M1180 1882 c0 -5 7 -9 15 -9 8 0 12 4 9 9 -3 4 -9 8 -15 8 -5 0 -9
-4 -9 -8z"/>
<path d="M246 2861 c5 -5 32 -21 59 -36 28 -15 62 -36 77 -46 14 -11 29 -19
33 -19 3 0 43 -24 88 -53 82 -54 181 -107 198 -107 5 0 -5 14 -23 30 -37 35
-31 37 41 10 86 -33 94 -17 11 22 -41 19 -86 39 -100 43 -14 4 -63 25 -110 47
-96 45 -98 46 -199 87 -77 33 -91 37 -75 22z m301 -146 c17 -9 37 -23 44 -32
11 -12 4 -11 -28 5 -23 12 -44 26 -48 32 -8 13 -3 13 32 -5z"/>
<path d="M2193 2860 c2 -8 -3 -21 -10 -29 -8 -7 -11 -16 -8 -19 3 -3 13 1 21
10 13 13 14 20 5 34 -7 11 -11 13 -8 4z"/>
<path d="M1217 2815 c-4 -8 -2 -17 3 -20 6 -4 10 3 10 14 0 25 -6 27 -13 6z"/>
<path d="M880 2645 c-10 -13 -9 -15 7 -15 11 0 24 -11 30 -27 11 -27 12 -27
10 12 -2 44 -24 58 -47 30z"/>
<path d="M1445 2610 c-3 -5 -1 -10 4 -10 6 0 11 5 11 10 0 6 -2 10 -4 10 -3 0
-8 -4 -11 -10z"/>
<path d="M1229 2529 c-24 -22 -35 -36 -24 -30 20 9 83 71 73 71 -3 0 -25 -18
-49 -41z"/>
<path d="M778 2494 c-4 -6 1 -19 12 -29 12 -10 20 -13 20 -7 0 7 -4 12 -9 12
-5 0 -11 8 -13 18 -2 11 -6 13 -10 6z"/>
<path d="M951 2385 c-1 -40 13 -75 24 -63 3 3 0 28 -9 54 l-15 49 0 -40z"/>
<path d="M990 2340 c0 -13 11 -13 30 0 12 8 11 10 -7 10 -13 0 -23 -4 -23 -10z"/>
<path d="M1250 1217 c0 -8 7 -17 15 -21 20 -7 20 -81 -1 -206 -8 -52 -18 -124
-21 -160 -3 -36 -10 -71 -16 -77 -6 -9 -5 -18 3 -28 15 -17 43 -13 115 20 28
12 75 28 105 35 30 7 72 26 93 42 34 27 37 34 37 79 0 33 -4 49 -12 49 -7 0
-51 -12 -97 -25 -47 -14 -86 -25 -88 -25 -2 0 -3 8 -3 19 0 15 18 23 93 42
l92 24 3 44 3 43 -90 -7 c-51 -4 -91 -3 -91 2 0 4 8 38 18 75 l19 67 -71 3
c-39 2 -79 8 -88 12 -13 6 -18 4 -18 -7z m128 -89 c-29 -91 -32 -108 -19 -108
6 0 41 5 79 12 80 13 108 8 93 -20 -11 -21 -89 -44 -143 -43 l-38 1 0 -43 c0
-51 6 -60 30 -47 24 13 157 33 169 26 20 -13 -16 -56 -66 -81 -28 -14 -57 -25
-63 -25 -6 0 -36 -9 -67 -20 -32 -11 -63 -20 -70 -20 -14 0 -12 48 8 215 5 44
9 103 9 131 0 76 5 84 55 84 l43 0 -20 -62z"/>
<path d="M1494 1211 c-14 -6 -24 -25 -32 -61 -7 -28 -12 -56 -12 -61 0 -15 54
-10 78 7 20 14 23 23 20 67 -3 55 -14 64 -54 48z m21 -62 c0 -24 -5 -35 -18
-37 -15 -3 -17 1 -11 25 4 15 7 33 7 41 0 7 5 11 11 9 6 -2 11 -19 11 -38z"/>
<path d="M1580 1194 c-11 -27 -14 -94 -5 -94 4 0 19 7 35 15 26 14 30 21 30
60 0 41 -2 45 -25 45 -18 0 -28 -7 -35 -26z m20 -35 c0 -11 -4 -18 -10 -14 -5
3 -7 12 -3 20 7 21 13 19 13 -6z"/>
<path d="M1594 1056 c-3 -7 -4 -35 -2 -62 l3 -49 45 0 c25 0 54 4 66 8 19 8
44 56 44 85 0 27 -146 44 -156 18z m124 -43 c4 -26 -27 -46 -66 -41 -22 2 -28
9 -30 36 l-3 33 48 -3 c41 -3 48 -6 51 -25z"/>
<path d="M1473 758 c-43 -21 -104 -43 -135 -50 -47 -10 -58 -16 -63 -36 -4
-18 1 -32 20 -52 25 -26 26 -27 89 -15 71 14 95 22 219 83 85 42 88 45 85 75
l-3 32 -67 0 c-57 0 -79 -6 -145 -37z m195 0 c-11 -32 -165 -106 -287 -138
-41 -10 -81 3 -81 27 0 19 21 31 105 59 28 9 52 19 55 23 25 32 218 59 208 29z"/>
<path d="M1660 680 c-14 -9 -13 -11 19 -14 17 -1 23 -17 13 -32 -4 -6 -47 -37
-96 -69 -94 -60 -115 -63 -122 -17 -3 17 8 27 59 53 35 17 74 40 87 50 14 11
-11 2 -55 -19 -44 -22 -91 -48 -104 -59 -22 -18 -23 -21 -10 -49 20 -41 63
-43 135 -7 73 36 126 97 122 138 -3 32 -23 42 -48 25z"/>
<path d="M1366 553 c-15 -4 -17 -11 -13 -40 7 -41 23 -63 46 -63 44 0 57 68
19 94 -12 9 -25 15 -28 15 -3 -1 -13 -3 -24 -6z m42 -54 c1 -41 -22 -32 -26 9
-2 24 0 31 11 26 8 -3 14 -19 15 -35z"/>
<path d="M554 186 c-3 -13 -1 -32 4 -42 8 -14 10 -10 14 20 5 43 -8 59 -18 22z"/>
<path d="M551 40 c-1 -27 3 -40 8 -35 6 6 6 25 1 45 l-8 35 -1 -45z"/>
</g>
</svg>
